<svg width="166" height="166" viewBox="0 0 166 166" fill="none" xmlns="http://www.w3.org/2000/svg">
<path d="M74.9149 26.4246C76.5194 26.4218 78.1239 26.4196 79.7284 26.4182C80.4734 26.4175 81.2183 26.4167 81.9633 26.4153C82.6817 26.4139 83.4001 26.4132 84.1185 26.4128C84.3932 26.4126 84.6678 26.4122 84.9424 26.4115C85.3259 26.4106 85.7094 26.4105 86.0929 26.4105C86.2646 26.4099 86.2646 26.4099 86.4398 26.4092C86.596 26.4094 86.596 26.4094 86.7554 26.4097C86.8462 26.4096 86.937 26.4095 87.0305 26.4094C87.2535 26.4246 87.2535 26.4246 87.5003 26.5489C87.7879 26.5871 88.0756 26.6121 88.3645 26.6381C88.6108 26.6731 88.6108 26.6731 88.7342 26.7973C89.016 26.8588 89.299 26.9147 89.5825 26.9681C90.1747 27.0816 90.7534 27.2098 91.333 27.3796C91.7962 27.5132 92.1965 27.5823 92.6825 27.5426C92.7233 27.7066 92.764 27.8706 92.8059 28.0395C92.9153 28.0062 93.0248 27.9729 93.1375 27.9386C93.5462 27.9153 93.5462 27.9153 93.8855 28.1172C94.4799 28.8002 94.4417 30.036 94.4099 30.8966C94.3889 30.9748 94.3679 31.0529 94.3462 31.1335C94.2812 31.4168 94.285 31.6426 94.3058 31.9321C94.3156 32.0844 94.3156 32.0844 94.3256 32.2398C94.3406 32.451 94.3557 32.6623 94.3709 32.8735C94.4073 33.4425 94.3906 33.9352 94.2866 34.4991C94.3273 34.5811 94.368 34.663 94.4099 34.7475C94.4579 35.6033 94.3966 36.4698 94.356 37.3251C94.3487 37.4904 94.3487 37.4904 94.3413 37.659C94.3121 38.2906 94.2725 38.9205 94.2244 39.5509C94.146 40.6275 94.1214 41.7046 94.095 42.7833C94.0208 45.7612 94.0208 45.7612 93.8505 46.4375C93.7876 46.695 93.7847 46.9094 93.794 47.1741C93.8268 48.567 93.7413 49.9078 93.5724 51.2903C93.4143 52.6181 93.3293 53.9456 93.2559 55.2802C93.2125 56.0601 93.1639 56.8311 93.0527 57.6044C93.6048 57.4246 93.9822 57.1149 94.4099 56.7348C94.4788 56.6783 94.5477 56.6218 94.6186 56.5635C95.1066 56.1602 95.5114 55.7228 95.9195 55.2388C96.1928 54.9338 96.4905 54.6741 96.8063 54.4149C97.0064 54.2459 97.1891 54.0661 97.3712 53.8777C97.3712 53.9597 97.3712 54.0417 97.3712 54.1262C97.4526 54.1262 97.5341 54.1262 97.618 54.1262C97.6358 54.0467 97.6536 53.9673 97.672 53.8855C97.7654 53.5404 97.9853 53.3837 98.2349 53.1324C98.3163 53.1734 98.3978 53.2144 98.4817 53.2566C98.441 53.0926 98.4003 52.9287 98.3583 52.7597C98.4397 52.7597 98.5212 52.7597 98.6051 52.7597C98.6051 52.6777 98.6051 52.5958 98.6051 52.5113C98.8901 52.4293 99.1751 52.3473 99.4688 52.2628C99.4824 52.099 99.4824 52.099 99.4962 51.9319C99.6113 51.4347 99.795 51.2196 100.14 50.8498C100.288 50.687 100.288 50.687 100.44 50.5208C100.703 50.2753 100.703 50.2753 100.949 50.2753C100.949 50.1933 100.949 50.1113 100.949 50.0268C101.153 49.9858 101.357 49.9449 101.566 49.9026C101.571 49.8129 101.577 49.7233 101.582 49.6309C101.707 49.2253 101.886 49.0923 102.215 48.8404C102.546 48.5637 102.81 48.2342 103.088 47.9054C103.348 47.6033 103.626 47.324 103.911 47.0455C104 46.9507 104.089 46.8559 104.181 46.7582C104.404 46.5486 104.404 46.5486 104.651 46.5486C104.679 46.4615 104.707 46.3744 104.736 46.2846C105.053 45.5852 105.512 45.1746 106.108 44.7163C106.686 44.2681 107.108 43.7728 107.539 43.183C107.604 43.1048 107.669 43.0267 107.736 42.9462C107.817 42.9462 107.899 42.9462 107.982 42.9462C108.01 42.877 108.038 42.8078 108.067 42.7366C108.275 42.3689 108.546 42.1233 108.846 41.8282C108.953 41.6945 109.058 41.5599 109.162 41.4245C109.545 40.9893 109.545 40.9893 109.957 40.9586C109.957 40.8356 109.957 40.7127 109.957 40.586C110.033 40.5578 110.109 40.5296 110.188 40.5006C110.477 40.3585 110.477 40.3585 110.558 40.0425C110.747 39.5978 111.037 39.4716 111.437 39.2195C111.519 39.0965 111.6 38.9736 111.684 38.8468C111.765 38.8468 111.847 38.8468 111.931 38.8468C111.931 38.7649 111.931 38.6829 111.931 38.5984C112.131 38.386 112.337 38.1793 112.548 37.9773C112.651 37.8658 112.651 37.8658 112.756 37.7521C112.918 37.6046 112.918 37.6046 113.165 37.6046C113.165 37.4816 113.165 37.3587 113.165 37.232C113.444 36.9825 113.444 36.9825 113.812 36.7195C113.933 36.6321 114.053 36.5447 114.177 36.4546C114.472 36.2692 114.672 36.15 115.015 36.114C115.142 36.2351 115.264 36.3602 115.386 36.4866C115.597 36.575 115.808 36.6632 116.021 36.7491C116.405 36.9345 116.681 37.1852 116.99 37.4804C116.99 37.5624 116.99 37.6444 116.99 37.7288C117.184 37.902 117.386 38.0664 117.591 38.2257C118.208 38.7069 118.208 38.7069 118.47 38.9711C118.47 39.135 118.47 39.299 118.47 39.468C118.564 39.4961 118.659 39.5243 118.756 39.5534C119.165 39.7549 119.275 39.9209 119.457 40.3375C119.48 40.6869 119.48 40.6869 119.457 40.9586C119.763 41.0201 119.763 41.0201 120.074 41.0828C120.074 41.2058 120.074 41.3288 120.074 41.4555C120.147 41.4672 120.221 41.4789 120.296 41.4909C120.628 41.5995 120.748 41.7371 120.969 42.0067C121.033 42.0835 121.097 42.1602 121.164 42.2392C121.308 42.4493 121.308 42.4493 121.308 42.6977C121.43 42.7387 121.552 42.7797 121.678 42.822C121.719 42.9039 121.76 42.9859 121.802 43.0704C121.924 43.1524 122.046 43.2344 122.172 43.3188C122.378 43.5984 122.511 43.8724 122.665 44.1884C122.625 44.3114 122.584 44.4344 122.542 44.5611C122.786 44.6431 123.031 44.725 123.282 44.8095C123.282 44.9735 123.282 45.1375 123.282 45.3064C123.376 45.3218 123.471 45.3371 123.568 45.353C123.899 45.4306 123.899 45.4306 124.269 45.6791C124.356 45.8843 124.438 46.0914 124.516 46.3002C124.598 46.3822 124.679 46.4641 124.763 46.5486C124.778 46.6716 124.793 46.7946 124.809 46.9213C124.835 47.0443 124.86 47.1672 124.886 47.294C125.127 47.4462 125.127 47.4462 125.38 47.5424C125.421 47.6654 125.461 47.7884 125.503 47.9151C125.625 47.9561 125.748 47.997 125.873 48.0393C125.833 48.1213 125.792 48.2033 125.75 48.2877C125.831 48.2877 125.913 48.2877 125.997 48.2877C126.244 48.8778 126.244 48.8778 126.244 49.1573C126.325 49.1983 126.406 49.2393 126.49 49.2815C126.526 49.3609 126.562 49.4404 126.598 49.5222C126.767 49.8334 126.917 49.8842 127.231 50.0268C127.103 51.1308 126.566 51.7938 125.873 52.6355C125.789 52.7397 125.704 52.844 125.617 52.9514C125.204 53.4455 125.204 53.4455 125.01 53.6293C124.928 53.6293 124.847 53.6293 124.763 53.6293C124.763 53.7113 124.763 53.7933 124.763 53.8777C124.682 53.8777 124.6 53.8777 124.516 53.8777C124.488 53.9469 124.46 54.0161 124.431 54.0873C124.224 54.4543 123.952 54.7014 123.652 54.9957C123.566 55.111 123.479 55.2263 123.39 55.3451C123.314 55.4348 123.238 55.5244 123.159 55.6168C123.037 55.6168 122.915 55.6168 122.789 55.6168C122.756 55.7142 122.723 55.8116 122.689 55.9119C122.542 56.2379 122.542 56.2379 122.172 56.4864C122.111 56.594 122.05 56.7016 121.987 56.8125C121.895 56.9585 121.895 56.9585 121.802 57.1075C121.68 57.1075 121.557 57.1075 121.432 57.1075C121.432 57.2305 121.432 57.3535 121.432 57.4802C121.35 57.4802 121.269 57.4802 121.185 57.4802C121.157 57.5493 121.129 57.6185 121.1 57.6898C120.892 58.0589 120.626 58.3056 120.321 58.5982C119.955 58.9572 119.612 59.325 119.28 59.7162C118.918 60.1378 118.526 60.4772 118.1 60.8342C117.683 61.2821 117.296 61.7542 116.913 62.2317C116.631 62.5601 116.344 62.8077 116.003 63.0702C115.709 63.334 115.638 63.4262 115.509 63.8155C115.267 64.017 115.013 64.1897 114.753 64.3667C114.51 64.5425 114.51 64.5425 114.414 64.7937C114.201 65.1989 113.898 65.4044 113.535 65.6788C113.453 65.6788 113.372 65.6788 113.288 65.6788C113.257 65.7557 113.227 65.8326 113.195 65.9117C113.012 66.2258 112.864 66.265 112.548 66.4242C112.515 66.4937 112.483 66.5632 112.449 66.6348C112.246 67.0275 111.959 67.3296 111.661 67.6509C111.6 67.7167 111.54 67.7826 111.477 67.8504C111.038 68.3229 110.592 68.7625 110.08 69.157C109.999 69.157 109.917 69.157 109.833 69.157C109.808 69.2262 109.782 69.2954 109.756 69.3667C109.565 69.6897 109.331 69.8835 109.041 70.1159C108.613 70.466 108.252 70.8641 107.913 71.2999C107.53 71.735 107.53 71.735 107.119 71.7657C107.119 71.8887 107.119 72.0117 107.119 72.1384C107.047 72.1666 106.976 72.1947 106.903 72.2238C106.599 72.3792 106.599 72.3792 106.371 72.7129C106.292 72.8103 106.213 72.9076 106.132 73.0079C106.009 73.0079 105.887 73.0079 105.761 73.0079C105.75 73.0802 105.74 73.1524 105.728 73.2268C105.615 73.5774 105.45 73.7274 105.183 73.9784C104.845 74.304 104.532 74.6316 104.235 74.9955C104.128 75.1185 104.021 75.2414 103.911 75.3682C103.829 75.3682 103.748 75.3682 103.664 75.3682C103.623 75.4911 103.582 75.6141 103.541 75.7408C103.418 75.7408 103.296 75.7408 103.17 75.7408C103.151 75.8523 103.151 75.8523 103.132 75.966C103.034 76.2792 102.934 76.4112 102.677 76.6104C102.555 76.6104 102.433 76.6104 102.307 76.6104C102.225 76.8153 102.144 77.0203 102.06 77.2315C101.978 77.2315 101.897 77.2315 101.813 77.2315C101.813 77.3135 101.813 77.3955 101.813 77.4799C101.691 77.4799 101.569 77.4799 101.443 77.4799C101.43 77.5536 101.417 77.6272 101.404 77.7031C101.307 78.0171 101.19 78.1536 100.957 78.3805C100.892 78.4452 100.828 78.5099 100.761 78.5766C100.579 78.7221 100.579 78.7221 100.332 78.7221C100.297 78.8221 100.261 78.922 100.225 79.0249C100.086 79.3433 100.086 79.3433 99.8389 79.4675C100.098 79.7281 100.593 79.7019 100.949 79.7159C101.035 79.696 101.12 79.676 101.209 79.6555C101.682 79.5711 102.148 79.5744 102.626 79.5756C102.732 79.5754 102.837 79.5752 102.946 79.575C103.294 79.5744 103.642 79.5748 103.991 79.5752C104.234 79.5751 104.478 79.575 104.722 79.5748C105.233 79.5747 105.744 79.5749 106.256 79.5755C106.906 79.5762 107.557 79.5758 108.207 79.5751C108.711 79.5746 109.215 79.5748 109.719 79.5751C109.959 79.5752 110.198 79.5751 110.438 79.5748C111.674 79.5736 112.9 79.5888 114.133 79.6889C114.641 79.7242 115.147 79.7217 115.656 79.717C116.217 79.7153 116.776 79.744 117.337 79.7703C118.271 79.8118 119.205 79.8448 120.141 79.863C122.762 79.9155 125.373 80.0383 127.989 80.2108C129.638 80.3188 131.243 80.3931 132.891 80.2206C133.002 80.2098 133.112 80.199 133.226 80.1878C133.676 80.1428 134.112 80.0945 134.554 80.0037C134.934 79.958 135.094 80.0185 135.428 80.1973C135.907 80.4348 136.323 80.5199 136.855 80.5855C136.936 80.6675 137.018 80.7495 137.102 80.8339C137.429 80.9041 137.754 80.9256 138.089 80.9581C138.089 81.0401 138.089 81.1221 138.089 81.2066C138.201 81.2425 138.313 81.2783 138.428 81.3153C139.257 81.6041 139.257 81.6041 139.569 82.0761C139.593 82.493 139.593 82.493 139.585 82.969C139.583 83.127 139.58 83.2851 139.578 83.4479C139.574 83.6298 139.574 83.6298 139.569 83.8153C139.447 83.8153 139.325 83.8153 139.199 83.8153C139.151 83.7538 139.102 83.6923 139.053 83.6289C138.685 83.3228 138.307 83.4196 137.842 83.4426C137.842 83.5246 137.842 83.6066 137.842 83.691C137.732 83.705 137.732 83.705 137.621 83.7192C136.843 83.8495 136.57 84.0449 136.114 84.6848C136.033 84.6848 135.952 84.6848 135.868 84.6848C135.869 84.7934 135.869 84.7934 135.871 84.9041C135.846 85.6127 135.698 86.0529 135.312 86.6491C134.873 87.3427 134.786 87.8801 134.79 88.6953C134.757 89.0326 134.757 89.0326 134.586 89.2592C134.387 89.4053 134.387 89.4053 134.14 89.4984C133.758 89.7392 133.666 90.1119 133.523 90.5233C133.49 90.6184 133.457 90.7135 133.423 90.8115C133.124 91.6691 133.124 91.6691 133.038 92.5652C133.03 93.0064 133.016 93.2564 132.783 93.6288C132.421 93.7686 132.421 93.7686 132.043 93.8773C131.832 94.0687 131.832 94.0687 131.673 94.2499C131.591 94.2499 131.51 94.2499 131.426 94.2499C131.48 95.0707 131.48 95.0707 131.919 95.7406C131.837 95.9062 131.755 96.0718 131.673 96.2375C131.64 96.3246 131.606 96.4117 131.572 96.5014C131.426 96.7344 131.426 96.7344 131.133 96.8508C130.724 97.0173 130.575 97.2527 130.315 97.6039C130.234 97.6449 130.152 97.6859 130.069 97.7281C130.109 97.7999 130.15 97.8716 130.192 97.9455C130.315 98.225 130.315 98.225 130.315 98.7219C129.836 99.254 129.466 99.4258 128.758 99.4692C128.199 99.4655 127.647 99.4184 127.105 99.279C126.824 99.2037 126.824 99.2037 126.382 99.1722C125.905 99.1178 125.561 98.9422 125.133 98.7219C124.794 98.6905 124.794 98.6905 124.516 98.7219C124.598 98.6809 124.679 98.6399 124.763 98.5977C124.763 98.5157 124.763 98.4337 124.763 98.3493C125.089 98.3083 125.414 98.2673 125.75 98.225C125.75 98.143 125.75 98.0611 125.75 97.9766C125.302 97.8946 124.854 97.8126 124.393 97.7281C124.393 97.6461 124.393 97.5642 124.393 97.4797C124.556 97.3977 124.719 97.3157 124.886 97.2312C124.32 96.9366 123.857 96.8369 123.221 96.7965C122.796 96.7695 122.452 96.7456 122.048 96.6101C121.681 96.5823 121.314 96.5871 120.946 96.5868C120.846 96.5853 120.745 96.5838 120.642 96.5822C120.545 96.582 120.448 96.5818 120.349 96.5815C120.216 96.5807 120.216 96.5807 120.082 96.58C119.789 96.6147 119.589 96.7131 119.334 96.8586C119.578 96.9406 119.823 97.0226 120.074 97.107C120.074 97.148 120.074 97.189 120.074 97.2312C119.978 97.2306 119.881 97.2299 119.782 97.2293C119.347 97.2267 118.913 97.2251 118.478 97.2235C118.326 97.2224 118.174 97.2214 118.017 97.2203C117.873 97.2199 117.729 97.2195 117.58 97.2191C117.446 97.2185 117.313 97.2178 117.175 97.2171C116.874 97.1959 116.874 97.1959 116.743 97.3555C117.117 97.5707 117.41 97.6392 117.838 97.666C118.329 97.7062 118.749 97.7932 119.211 97.9766C119.211 98.0586 119.211 98.1406 119.211 98.225C119.414 98.184 119.618 98.143 119.828 98.1008C119.868 98.1828 119.909 98.2648 119.951 98.3493C118.625 98.6186 117.378 98.6476 116.033 98.5278C115.495 98.482 115.011 98.4803 114.478 98.5579C114.02 98.6137 113.563 98.6352 113.103 98.6598C112.379 98.6995 111.663 98.754 110.944 98.8461C110.944 98.8871 110.944 98.9281 110.944 98.9704C111.037 98.9779 111.131 98.9854 111.228 98.9932C111.35 99.0036 111.473 99.014 111.599 99.0247C111.721 99.0348 111.843 99.0449 111.968 99.0553C112.301 99.0946 112.301 99.0946 112.671 99.2188C112.712 99.3418 112.753 99.4648 112.794 99.5915C112.671 99.7157 112.671 99.7157 112.382 99.7298C112.254 99.7291 112.125 99.7285 111.993 99.7278C111.848 99.7274 111.703 99.727 111.554 99.7266C111.396 99.7255 111.237 99.7245 111.074 99.7235C110.827 99.7227 110.58 99.722 110.333 99.7213C109.808 99.7197 109.284 99.717 108.76 99.7144C108.331 99.7123 107.902 99.7105 107.472 99.7094C107.15 99.7084 106.828 99.7069 106.505 99.7048C105.751 99.7027 105.026 99.7211 104.281 99.8399C104.281 100.004 104.281 100.168 104.281 100.337C104.52 100.552 104.767 100.76 105.021 100.958C105.062 101.04 105.103 101.122 105.145 101.206C105.267 101.247 105.389 101.288 105.515 101.331C105.55 101.428 105.586 101.525 105.623 101.626C105.8 102.043 105.99 102.106 106.378 102.324C106.586 102.529 106.791 102.737 106.995 102.945C107.687 103.593 108.39 104.227 109.104 104.851C109.272 104.998 109.44 105.146 109.607 105.295C109.738 105.412 109.738 105.412 109.872 105.531C109.95 105.601 110.029 105.671 110.109 105.743C110.344 105.948 110.344 105.948 110.697 106.175C110.697 106.257 110.697 106.339 110.697 106.424C110.831 106.439 110.831 106.439 110.967 106.455C111.386 106.567 111.613 106.752 111.931 107.045C111.972 107.127 112.012 107.209 112.054 107.293C112.257 107.383 112.463 107.466 112.671 107.542C112.671 107.624 112.671 107.706 112.671 107.79C112.761 107.823 112.852 107.855 112.945 107.889C113.76 108.245 114.395 108.904 115.015 109.529C115.535 109.965 116.057 110.394 116.619 110.771C116.619 110.853 116.619 110.935 116.619 111.02C116.703 111.046 116.787 111.071 116.874 111.098C117.254 111.276 117.523 111.504 117.834 111.785C118.278 112.167 118.755 112.506 119.227 112.853C119.58 113.131 119.885 113.43 120.198 113.753C120.34 113.879 120.484 114.004 120.63 114.125C121.001 114.436 121.339 114.773 121.678 115.119C121.799 115.241 121.92 115.363 122.041 115.484C122.796 116.245 122.796 116.245 122.981 116.431C123.149 116.6 123.32 116.768 123.491 116.936C123.738 117.192 123.943 117.443 124.146 117.736C124.437 118.138 124.744 118.414 125.133 118.722C125.354 119.047 125.519 119.375 125.688 119.731C125.85 120.043 125.982 120.235 126.244 120.461C125.781 121.066 125.781 121.066 125.503 121.206C125.344 121.489 125.203 121.78 125.061 122.072C124.886 122.324 124.886 122.324 124.635 122.437C124.555 122.441 124.475 122.444 124.393 122.448C124.311 122.366 124.23 122.284 124.146 122.2C124.024 122.159 123.902 122.118 123.776 122.076C123.776 121.994 123.776 121.912 123.776 121.827C123.675 121.894 123.675 121.894 123.573 121.963C123.485 122.021 123.396 122.078 123.305 122.138C123.218 122.195 123.131 122.253 123.041 122.312C122.789 122.448 122.789 122.448 122.419 122.448C122.378 122.53 122.337 122.612 122.295 122.697C122.092 122.656 121.888 122.615 121.678 122.573C121.678 122.696 121.678 122.819 121.678 122.945C121.434 122.904 121.19 122.863 120.938 122.821C120.897 122.944 120.857 123.067 120.815 123.194C120.458 123.379 120.121 123.459 119.727 123.543C118.912 123.74 118.304 124.209 117.73 124.809C117.36 124.933 117.36 124.933 116.99 124.809C116.99 124.891 116.99 124.973 116.99 125.057C116.623 125.211 116.267 125.343 115.879 125.43C115.879 125.553 115.879 125.676 115.879 125.802C115.266 126.086 114.716 126.299 114.028 126.299C113.947 126.545 113.865 126.791 113.782 127.045C113.652 127.029 113.652 127.029 113.519 127.014C113.036 127.056 112.8 127.238 112.424 127.541C112.299 127.748 112.176 127.955 112.054 128.163C111.746 128.395 111.746 128.395 111.437 128.535C111.315 128.494 111.193 128.453 111.067 128.411C110.986 128.616 110.904 128.821 110.82 129.032C110.698 129.032 110.576 129.032 110.45 129.032C110.45 129.114 110.45 129.196 110.45 129.281C110.369 129.281 110.287 129.281 110.203 129.281C110.203 129.199 110.203 129.117 110.203 129.032C110.139 129.065 110.075 129.098 110.009 129.132C108.979 129.657 108.979 129.657 108.599 129.777C108.477 129.736 108.355 129.695 108.229 129.653C108.27 129.571 108.311 129.489 108.353 129.405C108.279 129.389 108.205 129.374 108.129 129.358C107.859 129.281 107.859 129.281 107.489 129.032C107.489 128.95 107.489 128.868 107.489 128.784C107.367 128.784 107.245 128.784 107.119 128.784C107.119 128.702 107.119 128.62 107.119 128.535C107.037 128.535 106.956 128.535 106.872 128.535C106.666 128.328 106.461 128.121 106.255 127.914C105.988 127.753 105.988 127.753 105.761 127.666C105.761 127.584 105.761 127.502 105.761 127.417C105.688 127.384 105.614 127.351 105.538 127.316C105.268 127.169 105.094 127.033 104.898 126.796C104.898 126.714 104.898 126.632 104.898 126.548C104.792 126.497 104.792 126.497 104.684 126.445C104.399 126.296 104.139 126.13 103.872 125.95C103.775 125.884 103.679 125.819 103.579 125.751C103.324 125.575 103.073 125.395 102.823 125.212C102.529 125.003 102.264 124.829 101.937 124.684C101.937 124.602 101.937 124.52 101.937 124.436C101.774 124.395 101.611 124.354 101.443 124.312C101.443 124.23 101.443 124.148 101.443 124.063C101.355 124.032 101.266 124.001 101.175 123.97C100.79 123.799 100.506 123.591 100.178 123.326C100.071 123.24 99.9632 123.154 99.8524 123.066C99.5922 122.821 99.5922 122.821 99.4688 122.448C99.2635 122.365 99.0577 122.282 98.8518 122.2C98.5743 121.996 98.3079 121.79 98.0421 121.571C97.8895 121.447 97.7367 121.324 97.5838 121.201C97.5073 121.139 97.4308 121.077 97.352 121.014C96.8966 120.653 96.4253 120.314 95.9552 119.973C95.6341 119.707 95.4038 119.424 95.1503 119.094C94.9878 119.007 94.8233 118.924 94.6567 118.846C94.4922 118.68 94.3277 118.515 94.1632 118.349C94.0639 118.29 93.9647 118.231 93.8624 118.17C93.2879 117.818 92.8822 117.302 92.4435 116.796C91.6662 115.897 91.6662 115.897 90.585 115.492C90.5719 116.925 90.5764 118.354 90.6467 119.785C90.712 121.119 90.7166 122.45 90.7038 123.785C90.6987 124.511 90.7099 125.215 90.8037 125.934C90.8459 126.297 90.8434 126.656 90.8394 127.021C90.8378 127.222 90.8378 127.222 90.8361 127.427C90.8339 127.607 90.8339 127.607 90.8317 127.79C90.8317 127.954 90.8317 128.118 90.8317 128.287C90.8296 128.464 90.8296 128.464 90.8274 128.645C90.8263 128.778 90.8252 128.911 90.824 129.048C90.8219 129.244 90.8219 129.244 90.8197 129.445C90.8289 129.792 90.8536 130.12 90.893 130.464C90.98 131.288 90.9731 132.11 90.9706 132.937C90.971 133.095 90.9715 133.252 90.972 133.414C90.9718 133.564 90.9717 133.714 90.9715 133.869C90.9713 134.072 90.9713 134.072 90.9711 134.28C90.9551 134.622 90.9551 134.622 90.8317 134.995C90.7888 135.201 90.7473 135.408 90.7084 135.616C90.6269 135.616 90.5455 135.616 90.4616 135.616C90.4947 135.746 90.4947 135.746 90.5286 135.879C90.5916 136.279 90.5628 136.591 90.5001 136.99C90.4818 137.117 90.4636 137.244 90.4447 137.375C90.3207 137.786 90.149 137.933 89.8446 138.225C89.7227 138.506 89.7227 138.506 89.6519 138.799C89.5146 139.316 89.5146 139.316 89.1043 139.591C89.0382 139.549 88.972 139.506 88.9038 139.462C88.5234 139.307 88.2757 139.357 87.8705 139.412C87.1292 139.487 86.5711 139.382 85.8625 139.172C85.5303 139.095 85.3116 139.093 84.9786 139.148C84.4992 139.225 84.3497 139.169 83.9221 138.97C83.5137 138.896 83.134 138.844 82.7191 138.853C82.4415 138.846 82.4415 138.846 82.0713 138.597C81.9899 138.72 81.9084 138.843 81.8245 138.97C81.6744 138.924 81.5243 138.878 81.3696 138.83C80.9432 138.715 80.9432 138.715 80.529 138.861C80.2205 138.97 80.2205 138.97 79.9853 138.885C79.8175 138.799 79.6515 138.709 79.4879 138.615C78.9244 138.301 78.5451 138.193 77.8993 138.271C77.7789 138.285 77.6585 138.299 77.5345 138.313C77.4436 138.325 77.3528 138.337 77.2593 138.349C77.2185 138.267 77.1778 138.185 77.1359 138.1C77.0544 138.141 76.973 138.182 76.8891 138.225C76.8077 138.184 76.7262 138.143 76.6423 138.1C76.6423 138.018 76.6423 137.936 76.6423 137.852C76.5609 137.852 76.4795 137.852 76.3955 137.852C76.3955 137.934 76.3955 138.016 76.3955 138.1C76.2327 138.1 76.0698 138.1 75.902 138.1C75.902 138.018 75.902 137.936 75.902 137.852C75.5355 137.975 75.1691 138.098 74.7915 138.225C74.7915 138.307 74.7915 138.389 74.7915 138.473C74.4374 138.607 74.163 138.589 73.7967 138.535C73.3238 138.439 73.3238 138.439 72.9407 138.597C72.8186 138.515 72.6964 138.433 72.5706 138.349C72.5299 138.472 72.4891 138.595 72.4472 138.721C72.1773 138.822 72.1773 138.822 71.8303 138.846C71.2305 138.357 70.8564 137.849 70.766 137.075C70.7508 136.922 70.7355 136.768 70.7198 136.61C70.6791 136.569 70.6383 136.528 70.5964 136.485C70.5254 136.101 70.4693 135.715 70.4113 135.329C70.3841 135.006 70.3841 135.006 70.2262 134.871C70.22 134.653 70.2219 134.436 70.2272 134.218C70.2293 134.084 70.2313 133.949 70.2335 133.81C70.2389 133.527 70.2453 133.244 70.2527 132.961C70.2626 132.194 70.202 131.603 69.9286 130.889C69.8143 130.508 69.9005 130.223 70.0103 129.847C70.249 128.887 70.3028 127.969 70.3382 126.985C70.3547 126.533 70.3751 126.081 70.3954 125.63C70.406 125.392 70.4164 125.155 70.4265 124.918C70.453 124.313 70.4893 123.712 70.5424 123.108C70.6095 122.229 70.6099 121.35 70.6118 120.469C70.6127 120.25 70.6127 120.25 70.6135 120.026C70.6133 119.887 70.613 119.747 70.6128 119.603C70.6126 119.478 70.6125 119.354 70.6124 119.225C70.6035 118.843 70.6035 118.843 70.5347 118.457C70.4503 117.799 70.4554 117.151 70.4566 116.489C70.4564 116.272 70.4564 116.272 70.4563 116.052C70.4562 115.746 70.4564 115.441 70.4569 115.135C70.4576 114.677 70.4569 114.218 70.4561 113.76C70.4557 112.014 70.4933 110.278 70.5964 108.535C70.4372 108.652 70.2786 108.769 70.1202 108.886C70.0318 108.951 69.9434 109.017 69.8523 109.084C69.5841 109.287 69.5841 109.287 69.3317 109.63C69.0887 109.936 68.9871 109.95 68.6222 110.026C68.5815 110.149 68.5408 110.272 68.4988 110.399C68.2839 110.612 68.2839 110.612 68.0207 110.834C67.6548 111.142 67.6548 111.142 67.318 111.482C67.1416 111.641 67.1416 111.641 66.7714 111.641C66.7313 111.774 66.7313 111.774 66.6904 111.91C66.481 112.355 66.2104 112.596 65.846 112.922C65.7251 113.032 65.6043 113.141 65.4797 113.254C65.1674 113.504 65.1674 113.504 64.9206 113.504C64.8891 113.577 64.8576 113.65 64.8252 113.725C64.6588 114.029 64.4778 114.215 64.2266 114.452C63.8448 114.824 63.5106 115.208 63.1855 115.632C62.838 116.08 62.4868 116.441 62.049 116.797C61.5258 117.252 61.0925 117.795 60.7101 118.372C60.4613 118.748 60.1824 119.028 59.8618 119.343C59.5057 119.742 59.1706 120.138 58.8747 120.585C58.7933 120.585 58.7118 120.585 58.6279 120.585C58.5783 120.704 58.5783 120.704 58.5277 120.826C58.3812 121.082 58.3812 121.082 58.011 121.206C57.9257 121.412 57.8438 121.619 57.7642 121.827C57.5546 122.098 57.5546 122.098 57.3092 122.363C57.2208 122.46 57.1324 122.557 57.0413 122.657C56.9541 122.752 56.8669 122.847 56.7771 122.945C56.1887 123.607 55.6276 124.288 55.0758 124.981C54.794 125.316 54.5069 125.629 54.186 125.927C54.1046 125.927 54.0231 125.927 53.9392 125.927C53.9288 125.999 53.9183 126.072 53.9074 126.146C53.7899 126.502 53.6206 126.641 53.3377 126.882C53.2515 126.956 53.1653 127.031 53.0765 127.108C52.8288 127.293 52.8288 127.293 52.4586 127.417C52.423 127.489 52.3874 127.561 52.3506 127.635C52.1213 128.096 51.7989 128.463 51.3096 128.636C51.2065 128.648 51.2065 128.648 51.1014 128.659C51.1014 128.741 51.1014 128.823 51.1014 128.908C50.6895 129.046 50.6359 129.008 50.2377 128.908C50.0239 128.919 50.0239 128.919 49.8058 128.931C49.374 128.908 49.374 128.908 49.0809 128.698C48.8638 128.387 48.7984 128.165 48.757 127.79C48.8385 127.749 48.9199 127.708 49.0038 127.666C48.9099 127.523 48.8145 127.38 48.7185 127.239C48.639 127.12 48.639 127.12 48.558 126.998C48.3864 126.76 48.3864 126.76 48.0167 126.672C48.0014 126.592 47.9862 126.513 47.9704 126.431C47.945 126.347 47.9195 126.262 47.8933 126.175C47.6201 126.04 47.6201 126.04 47.2764 125.927C46.9834 125.769 46.6991 125.599 46.4127 125.43C46.4127 125.307 46.4127 125.184 46.4127 125.057C46.3313 125.057 46.2498 125.057 46.1659 125.057C46.1125 124.916 46.059 124.775 46.004 124.63C45.9353 124.484 45.8665 124.338 45.7958 124.187C45.6736 124.146 45.5515 124.105 45.4256 124.063C45.3493 124.02 45.2729 123.976 45.1942 123.931C44.8842 123.794 44.6505 123.796 44.3151 123.815C44.2744 123.569 44.2337 123.323 44.1917 123.069C44.0543 123.034 43.9169 122.998 43.7753 122.961C43.328 122.821 43.328 122.821 43.0813 122.573C42.8095 122.515 42.8095 122.515 42.5106 122.495C42.4098 122.486 42.3089 122.476 42.205 122.467C42.1277 122.461 42.0504 122.455 41.9708 122.448C41.9173 122.307 41.8639 122.167 41.8088 122.021C41.7401 121.875 41.6714 121.729 41.6006 121.579C41.4785 121.538 41.3563 121.497 41.2305 121.455C41.0618 121.573 40.897 121.697 40.7369 121.827C40.6555 121.827 40.574 121.827 40.4901 121.827C40.4901 121.704 40.4901 121.581 40.4901 121.455C40.368 121.455 40.2458 121.455 40.12 121.455C40.12 121.168 40.12 120.881 40.12 120.585C39.9164 120.667 39.7128 120.749 39.5031 120.833C39.4216 120.751 39.3402 120.669 39.2563 120.585C38.9684 120.58 38.6804 120.58 38.3926 120.585C38.3111 120.544 38.2297 120.503 38.1458 120.461C38.1153 120.363 38.0847 120.266 38.0533 120.166C37.8379 119.71 37.623 119.645 37.1587 119.467C36.8659 119.393 36.5736 119.329 36.2772 119.272C36.0482 119.219 36.0482 119.219 35.9249 119.094C35.3276 119.074 34.7857 119.1 34.1974 119.219C34.1974 119.301 34.1974 119.383 34.1974 119.467C34.0753 119.467 33.9531 119.467 33.8273 119.467C33.812 119.587 33.7968 119.708 33.781 119.832C33.7556 119.957 33.7301 120.083 33.7039 120.212C33.6225 120.253 33.541 120.294 33.4571 120.337C33.335 120.255 33.2128 120.173 33.087 120.088C33.2559 119.722 33.4421 119.402 33.7039 119.094C33.7853 119.094 33.8668 119.094 33.9507 119.094C33.9329 118.992 33.915 118.889 33.8967 118.784C33.967 118.218 34.2063 117.998 34.5893 117.595C34.8215 117.358 34.8215 117.358 35.0125 117.077C35.0693 117.005 35.126 116.933 35.1845 116.858C35.266 116.858 35.3474 116.858 35.4313 116.858C35.4625 116.789 35.4937 116.719 35.5258 116.647C35.6998 116.321 35.9074 116.057 36.1408 115.771C36.458 115.38 36.7649 114.986 37.0585 114.576C37.3427 114.19 37.645 113.925 38.0224 113.629C38.2367 113.397 38.4405 113.158 38.6447 112.918C38.9993 112.502 39.3662 112.098 39.7315 111.692C39.9672 111.426 40.1948 111.155 40.4207 110.88C40.5251 110.762 40.6294 110.644 40.7369 110.523C40.8184 110.523 40.8998 110.523 40.9837 110.523C41.0107 110.457 41.0378 110.392 41.0656 110.324C41.291 109.917 41.5896 109.583 41.8937 109.234C42.0269 109.08 42.1601 108.925 42.2932 108.771C42.3619 108.691 42.4305 108.612 42.5013 108.53C42.7104 108.288 42.9181 108.044 43.1251 107.799C43.2246 107.682 43.2246 107.682 43.3262 107.562C43.4534 107.412 43.5806 107.261 43.7078 107.111C43.9825 106.787 44.2599 106.473 44.5619 106.175C44.6994 106.021 44.8355 105.866 44.9706 105.709C45.0462 105.622 45.1217 105.535 45.1995 105.445C45.4049 105.206 45.6082 104.965 45.8112 104.723C46.1188 104.361 46.4436 104.024 46.7828 103.691C46.8923 103.576 47.0017 103.46 47.1144 103.341C47.3998 103.07 47.3998 103.07 47.6465 103.07C47.6797 102.996 47.7129 102.922 47.747 102.846C47.8938 102.572 48.0389 102.399 48.2596 102.184C48.3301 102.115 48.4005 102.045 48.4731 101.973C48.5465 101.902 48.6198 101.831 48.6953 101.758C48.8408 101.615 48.9861 101.473 49.131 101.33C49.2275 101.236 49.2275 101.236 49.326 101.141C49.5252 100.938 49.5252 100.938 49.7441 100.585C49.8256 100.585 49.907 100.585 49.9909 100.585C49.9909 100.503 49.9909 100.421 49.9909 100.337C49.5322 100.229 49.1117 100.199 48.6413 100.202C48.496 100.203 48.3508 100.204 48.2012 100.205C47.966 100.207 47.966 100.207 47.7261 100.209C47.5604 100.21 47.3946 100.211 47.2289 100.212C46.5292 100.215 45.8296 100.219 45.1299 100.224C43.1 100.24 41.0979 100.199 39.0735 100.02C38.2659 99.9496 37.4681 99.9396 36.6575 99.9564C35.7648 99.9656 34.8797 99.9684 33.9892 99.902C32.993 99.8297 32.0011 99.8327 31.0026 99.8445C30.8818 99.8456 30.761 99.8466 30.6366 99.8477C30.4754 99.8498 30.4754 99.8498 30.3109 99.852C29.9896 99.8394 29.6986 99.7873 29.3854 99.7157C29.2129 99.6775 29.2129 99.6775 29.0369 99.6385C28.1156 99.3741 28.1156 99.3741 27.8811 98.9577C27.7117 98.2063 27.7369 97.3611 27.9047 96.6101C27.9862 96.5691 28.0676 96.5282 28.1515 96.4859C28.0701 96.4039 27.9887 96.3219 27.9047 96.2375C27.9047 96.0735 27.9047 95.9095 27.9047 95.7406C27.9862 95.7406 28.0676 95.7406 28.1515 95.7406C28.1286 95.6432 28.1057 95.5459 28.0821 95.4456C28.0281 95.1195 28.0281 95.1195 28.1515 94.871C28.0701 94.83 27.9887 94.789 27.9047 94.7468C27.8752 94.192 27.8713 93.7773 28.0898 93.2639C28.2864 92.7932 28.299 92.4073 28.2792 91.9013C28.2749 91.6413 28.2749 91.6413 28.3443 91.2531C28.4099 90.8193 28.3463 90.4574 28.2749 90.0264C28.2749 89.8624 28.2749 89.6984 28.2749 89.5295C28.3563 89.5295 28.4378 89.5295 28.5217 89.5295C28.4815 89.4593 28.4412 89.3892 28.3998 89.3169C28.2618 89.0028 28.2463 88.7994 28.2508 88.4581C28.252 88.2957 28.252 88.2957 28.2532 88.13C28.2553 88.0179 28.2574 87.9059 28.2595 87.7904C28.2606 87.6783 28.2617 87.5662 28.2629 87.4507C28.265 87.242 28.2677 87.0334 28.271 86.8247C28.2746 86.5669 28.2749 86.3091 28.2749 86.0513C28.291 85.7432 28.3092 85.4352 28.3289 85.1274C28.3389 84.9661 28.3489 84.8049 28.3593 84.6387C28.3912 84.2693 28.4438 83.928 28.5217 83.5668C28.55 83.3731 28.5758 83.179 28.5988 82.9845C28.6106 82.8892 28.6223 82.794 28.6345 82.6958C28.6654 82.4394 28.6654 82.4394 28.5217 82.2004C28.6031 82.1594 28.6846 82.1184 28.7685 82.0761C28.757 81.8494 28.757 81.8494 28.7453 81.6181C28.7428 81.1349 28.8458 80.8543 29.1386 80.4613C29.0572 80.4613 28.9757 80.4613 28.8918 80.4613C28.9304 80.2206 28.9304 80.2206 29.0152 79.9644C29.1374 79.9234 29.2595 79.8824 29.3854 79.8401C29.4261 79.7582 29.4668 79.6762 29.5088 79.5917C29.6716 79.5917 29.8345 79.5917 30.0023 79.5917C30.1117 79.5507 30.2212 79.5097 30.3339 79.4675C30.7709 79.3347 31.1127 79.3277 31.5639 79.3467C31.8599 79.3516 31.8599 79.3516 32.1722 79.2826C32.7707 79.1923 33.3618 79.2011 33.9661 79.2035C34.1491 79.2028 34.1491 79.2028 34.3358 79.2021C34.5121 79.2023 34.5121 79.2023 34.692 79.2025C34.7984 79.2027 34.9048 79.2028 35.0145 79.203C35.2951 79.2183 35.5305 79.2724 35.8015 79.3433C35.9798 79.3595 36.1586 79.3708 36.3374 79.3782C36.4906 79.3851 36.4906 79.3851 36.6469 79.3921C36.7547 79.3965 36.8625 79.4008 36.9736 79.4054C37.6543 79.4356 38.3315 79.4677 39.0095 79.5374C39.6068 79.591 40.1995 79.5961 40.7986 79.5917C41.9432 79.5836 43.0863 79.6071 44.2304 79.638C44.4294 79.6433 44.6284 79.6485 44.8274 79.6535C45.111 79.6607 45.3946 79.6685 45.6782 79.6766C45.7624 79.6787 45.8466 79.6808 45.9334 79.6829C46.3503 79.6957 46.756 79.727 47.1681 79.7883C47.6241 79.8377 47.9412 79.8013 48.3869 79.7159C48.7169 79.7046 49.0435 79.6985 49.3735 79.6994C49.4662 79.6993 49.559 79.6992 49.6546 79.6991C49.8498 79.699 50.0451 79.6992 50.2403 79.6997C50.5371 79.7004 50.8338 79.6997 51.1305 79.6989C51.3211 79.699 51.5118 79.6992 51.7024 79.6994C51.8339 79.6991 51.8339 79.6991 51.9681 79.6987C52.5124 79.7012 53.0321 79.7535 53.5691 79.8401C54.4154 79.9033 55.2099 79.766 56.0368 79.5917C55.7102 78.7069 55.152 78.1767 54.4328 77.6041C54.5549 77.5222 54.6771 77.4402 54.803 77.3557C54.7012 77.3326 54.5994 77.3096 54.4945 77.2858C53.6925 76.9542 53.1158 76.3809 52.7054 75.6166C52.6163 75.5269 52.5272 75.4372 52.4355 75.3449C52.2118 75.1197 52.2118 75.1197 52.2118 74.8713C52.1126 74.8328 52.1126 74.8328 52.0113 74.7936C51.4713 74.4789 51.0749 74.0238 50.7312 73.5048C50.5133 73.3102 50.2874 73.1288 50.0598 72.9458C49.8675 72.7595 49.8675 72.7595 49.7441 72.3868C49.4973 72.2367 49.4973 72.2367 49.2506 72.1384C49.2506 72.0154 49.2506 71.8924 49.2506 71.7657C49.1284 71.7657 49.0063 71.7657 48.8804 71.7657C48.8524 71.6684 48.8244 71.571 48.7956 71.4707C48.6663 71.1196 48.6663 71.1196 48.3406 71.0281C47.8945 70.8463 47.7735 70.5541 47.5232 70.1508C47.401 70.0688 47.2789 69.9869 47.153 69.9024C47.153 69.7794 47.153 69.6564 47.153 69.5297C46.9494 69.4477 46.7458 69.3657 46.5361 69.2813C46.5361 69.1583 46.5361 69.0353 46.5361 68.9086C46.4623 68.8779 46.3885 68.8471 46.3124 68.8154C46.0046 68.6383 45.883 68.446 45.6724 68.1633C45.596 68.1248 45.5197 68.0864 45.441 68.0468C45.0703 67.8602 44.8337 67.6053 44.5619 67.2937C44.5619 67.1707 44.5619 67.0478 44.5619 66.921C44.49 66.9106 44.4181 66.9002 44.344 66.8895C43.9881 66.7698 43.8466 66.5944 43.6056 66.3077C43.5299 66.2195 43.4542 66.1312 43.3762 66.0403C43.2046 65.803 43.2046 65.803 43.2046 65.5546C43.1232 65.5546 43.0418 65.5546 42.9579 65.5546C42.9579 65.4726 42.9579 65.3906 42.9579 65.3062C42.8764 65.3062 42.795 65.3062 42.7111 65.3062C42.5106 65.1354 42.5106 65.1354 42.3409 64.9335C42.3409 64.8515 42.3409 64.7695 42.3409 64.685C42.2188 64.6441 42.0966 64.6031 41.9708 64.5608C41.7621 64.3149 41.5564 64.0665 41.3539 63.8155C41.2724 63.7745 41.191 63.7335 41.1071 63.6913C41.0248 63.4842 40.9426 63.2772 40.8603 63.0702C40.7789 63.0292 40.6974 62.9882 40.6135 62.9459C40.6135 62.864 40.6135 62.782 40.6135 62.6975C40.4507 62.6565 40.2878 62.6155 40.12 62.5733C40.12 62.4913 40.12 62.4093 40.12 62.3248C40.0467 62.2915 39.9734 62.2581 39.8979 62.2237C39.6252 62.0757 39.448 61.9271 39.2307 61.7066C39.1588 61.634 39.0868 61.5614 39.0127 61.4866C38.9378 61.4096 38.863 61.3327 38.7859 61.2534C38.7086 61.1748 38.6313 61.0961 38.5516 61.0151C38.0912 60.5438 37.6466 60.0637 37.2223 59.5589C37.0179 59.3234 36.8019 59.1047 36.5803 58.8854C36.252 58.5594 35.947 58.2318 35.6781 57.8528C35.6781 57.7708 35.6781 57.6889 35.6781 57.6044C35.6062 57.5735 35.5343 57.5426 35.4602 57.5107C35.1457 57.3341 34.958 57.1396 34.7218 56.8668C34.6461 56.7811 34.5704 56.6955 34.4924 56.6072C34.3208 56.3622 34.3208 56.3622 34.3208 55.9895C34.1987 55.9895 34.0765 55.9895 33.9507 55.9895C33.4904 55.5749 33.1104 55.1006 32.7168 54.6231C32.5756 54.4847 32.5756 54.4847 32.4315 54.3436C32.2233 54.1262 32.2233 54.1262 32.2233 53.8777C32.1011 53.8367 31.979 53.7957 31.8531 53.7535C31.6845 53.5498 31.5206 53.3422 31.3596 53.1324C31.2603 53.0325 31.1611 52.9325 31.0588 52.8296C30.7157 52.4842 30.4104 52.1622 30.1257 51.7659C30.1488 51.4709 30.1488 51.4709 30.2491 51.2691C30.1727 51.2921 30.0964 51.3152 30.0177 51.3389C29.7555 51.3933 29.7555 51.3933 29.5088 51.2691C29.4265 51.1034 29.3443 50.9378 29.262 50.7722C29.1806 50.7312 29.0991 50.6902 29.0152 50.6479C29.0152 50.566 29.0152 50.484 29.0152 50.3995C28.9457 50.3736 28.8762 50.3476 28.8046 50.3209C28.4155 50.0873 28.2118 49.7868 27.9433 49.4213C27.8461 49.2909 27.7489 49.1606 27.6488 49.0263C27.4482 48.7173 27.3386 48.5224 27.2878 48.1635C27.2064 48.1635 27.1249 48.1635 27.041 48.1635C26.5135 47.255 26.2853 46.5731 26.4733 45.5306C26.5475 45.3064 26.5475 45.3064 26.7943 45.1822C26.8706 45.0323 26.8706 45.0323 26.9485 44.8794C27.2284 44.4667 27.4347 44.4555 27.9047 44.3126C28.1692 44.1569 28.4234 43.9904 28.6778 43.8186C28.8918 43.6915 28.8918 43.6915 29.1386 43.6915C29.1386 43.6095 29.1386 43.5275 29.1386 43.4431C29.2608 43.4021 29.3829 43.3611 29.5088 43.3188C29.5902 43.4418 29.6716 43.5648 29.7555 43.6915C29.7912 43.5532 29.8268 43.4148 29.8635 43.2723C29.9638 43.0292 29.9638 43.0292 30.1257 42.822C30.4363 42.7248 30.7361 42.6888 31.0583 42.6468C31.5521 42.5267 31.6953 42.2399 31.9765 41.8282C32.3467 41.5797 32.3467 41.5797 32.7168 41.5797C32.7779 41.3953 32.7779 41.3953 32.8402 41.2071C33.1456 41.1456 33.1456 41.1456 33.4571 41.0828C33.5182 40.8984 33.5182 40.8984 33.5805 40.7102C33.7772 40.5738 33.7772 40.5738 34.0124 40.454C34.3616 40.2848 34.3616 40.2848 34.5676 39.9648C34.649 39.9648 34.7305 39.9648 34.8144 39.9648C34.8144 39.8829 34.8144 39.8009 34.8144 39.7164C35.0129 39.6933 35.0129 39.6933 35.2154 39.6698C35.607 39.6041 35.8343 39.5324 36.1716 39.3437C36.2531 39.3437 36.3345 39.3437 36.4184 39.3437C36.4744 39.2233 36.5304 39.1029 36.5881 38.9788C36.7886 38.5984 36.7886 38.5984 37.0353 38.4742C37.3651 38.4575 37.6921 38.4688 38.0224 38.4742C38.0224 38.3102 38.0224 38.1462 38.0224 37.9773C38.1446 37.9363 38.2667 37.8953 38.3926 37.8531C38.4333 37.7711 38.474 37.6891 38.516 37.6046C38.7979 37.526 38.7979 37.526 39.1406 37.4649C39.254 37.4441 39.3674 37.4232 39.4843 37.4018C39.6157 37.3792 39.6157 37.3792 39.7498 37.3562C39.7498 37.2742 39.7498 37.1922 39.7498 37.1077C39.9941 37.1487 40.2384 37.1897 40.4901 37.232C40.4901 37.109 40.4901 36.986 40.4901 36.8593C40.6937 36.8593 40.8973 36.8593 41.1071 36.8593C41.1682 36.6748 41.1682 36.6748 41.2305 36.4866C41.6513 36.4866 42.0486 36.5477 42.4643 36.6108C42.505 36.7338 42.5458 36.8568 42.5877 36.9835C42.7099 36.9835 42.832 36.9835 42.9579 36.9835C43.4868 37.3708 43.8923 37.8169 44.3137 38.3174C44.7054 38.7608 45.1318 39.1682 45.5562 39.5796C45.7958 39.8406 45.7958 39.8406 45.7958 40.0891C45.8772 40.0891 45.9586 40.0891 46.0425 40.0891C46.1982 40.3031 46.1982 40.3031 46.3741 40.5937C46.635 41.0058 46.8983 41.3398 47.2533 41.6729C47.5914 41.9946 47.7552 42.2094 47.7699 42.6977C47.8921 42.7387 48.0142 42.7797 48.1401 42.822C48.1401 42.9039 48.1401 42.9859 48.1401 43.0704C48.303 43.1114 48.4658 43.1524 48.6336 43.1946C48.6744 43.3586 48.7151 43.5226 48.757 43.6915C48.8385 43.6915 48.9199 43.6915 49.0038 43.6915C49.0038 43.7735 49.0038 43.8555 49.0038 43.94C49.1259 43.9809 49.2481 44.0219 49.374 44.0642C49.4007 44.1833 49.4007 44.1833 49.4279 44.3049C49.4508 44.3894 49.4737 44.474 49.4973 44.5611C49.5788 44.6021 49.6602 44.6431 49.7441 44.6853C49.8256 44.7263 49.907 44.7673 49.9909 44.8095C50.032 44.9751 50.0731 45.1408 50.1143 45.3064C50.2764 45.3938 50.4415 45.4758 50.6078 45.5548C50.9583 45.8799 51.2682 46.2267 51.5718 46.5952C51.9206 47.0116 52.3078 47.3594 52.7184 47.7127C53.4969 48.3866 53.4969 48.3866 53.7002 48.8079C53.7998 49.0568 53.7998 49.0568 54.0703 49.1573C54.1492 49.1983 54.2281 49.2393 54.3094 49.2815C54.3505 49.4471 54.3917 49.6128 54.4328 49.7784C54.5961 49.8635 54.7609 49.9459 54.9263 50.0268C55.6967 50.6218 56.3115 51.3274 56.9082 52.092C57.1746 52.4207 57.4627 52.712 57.7642 53.0082C57.9699 53.2152 58.1755 53.4222 58.3812 53.6293C58.5262 53.7715 58.5262 53.7715 58.6742 53.9165C58.9362 54.1866 59.1791 54.4605 59.4222 54.7473C59.6921 55.0637 59.9595 55.337 60.2859 55.5935C60.3903 55.6832 60.4946 55.7729 60.6021 55.8653C60.6021 55.9883 60.6021 56.1112 60.6021 56.2379C60.6743 56.27 60.7465 56.302 60.8209 56.335C61.1173 56.4983 61.3094 56.6767 61.5429 56.9212C61.6158 56.9967 61.6886 57.0723 61.7637 57.1502C61.8282 57.2181 61.8928 57.286 61.9594 57.3559C62.0408 57.4379 62.1222 57.5199 62.2061 57.6044C62.2977 57.6992 62.3894 57.794 62.4837 57.8917C62.7287 58.1327 62.9659 58.3454 63.2318 58.5593C63.3412 58.6541 63.4506 58.7489 63.5634 58.8466C63.5634 58.9286 63.5634 59.0106 63.5634 59.0951C63.6372 59.1258 63.711 59.1565 63.787 59.1882C64.0959 59.3659 64.2396 59.5384 64.4271 59.8404C64.4271 59.9224 64.4271 60.0044 64.4271 60.0888C64.5683 60.1349 64.5683 60.1349 64.7124 60.182C65.0811 60.3547 65.1819 60.5088 65.4142 60.8342C65.4918 60.8718 65.5694 60.9094 65.6494 60.9482C65.9347 61.0966 66.0707 61.2432 66.2702 61.4941C66.6737 61.9861 67.089 62.4341 67.5889 62.8295C67.8668 63.0578 68.0607 63.2629 68.2521 63.5671C68.2521 63.649 68.2521 63.731 68.2521 63.8155C68.3309 63.8488 68.4098 63.8821 68.4911 63.9164C68.7456 64.0639 68.7456 64.0639 68.869 64.4366C68.9504 64.4366 69.0319 64.4366 69.1158 64.4366C69.2984 64.6278 69.2984 64.6278 69.5091 64.8869C69.8554 65.2984 70.213 65.64 70.6268 65.9802C70.8714 66.2012 71.0731 66.4412 71.2827 66.6959C71.6314 67.1118 71.9486 67.3204 72.4472 67.5422C72.5286 67.6651 72.6101 67.7881 72.694 67.9148C72.694 67.7816 72.694 67.6484 72.694 67.5111C72.694 66.8425 72.7102 66.3413 72.9407 65.7176C73.0709 65.2835 73.1199 64.8809 73.1571 64.4308C73.1875 64.1882 73.1875 64.1882 73.3109 63.9397C73.3923 63.9397 73.4738 63.9397 73.5577 63.9397C73.5984 63.6938 73.6391 63.4478 73.681 63.1944C73.5996 63.1534 73.5182 63.1124 73.4343 63.0702C73.5564 63.0702 73.6786 63.0702 73.8044 63.0702C73.8044 62.9882 73.8044 62.9062 73.8044 62.8217C73.723 62.8217 73.6416 62.8217 73.5577 62.8217C73.519 62.6483 73.4805 62.4749 73.442 62.3015C73.4098 62.1567 73.4098 62.1567 73.3769 62.0089C73.3551 61.9082 73.3333 61.8075 73.3109 61.7037C73.2854 61.6064 73.26 61.509 73.2338 61.4087C73.175 60.9945 73.233 60.6479 73.3032 60.2363C73.3392 60.0199 73.3392 60.0199 73.376 59.7991C73.3952 59.6898 73.4144 59.5804 73.4343 59.4677C73.475 59.5497 73.5157 59.6317 73.5577 59.7162C73.6391 59.7162 73.7205 59.7162 73.8044 59.7162C73.8044 59.6342 73.8044 59.5522 73.8044 59.4677C73.8859 59.4677 73.9673 59.4677 74.0512 59.4677C74.0512 59.3447 74.0512 59.2218 74.0512 59.0951C74.1326 59.0951 74.2141 59.0951 74.298 59.0951C74.2573 58.8901 74.2165 58.6851 74.1746 58.4739C74.0932 58.4739 74.0117 58.4739 73.9278 58.4739C73.8871 58.7199 73.8464 58.9659 73.8044 59.2193C73.723 59.2193 73.6416 59.2193 73.5577 59.2193C73.551 58.8569 73.5461 58.4947 73.5422 58.1323C73.5402 58.0298 73.5381 57.9274 73.536 57.8218C73.5352 57.7225 73.5344 57.6232 73.5336 57.5209C73.5323 57.4299 73.531 57.3388 73.5296 57.2449C73.5616 56.9461 73.6573 56.7457 73.8044 56.4864C73.8859 56.5274 73.9673 56.5684 74.0512 56.6106C74.0512 56.7746 74.0512 56.9386 74.0512 57.1075C74.1326 57.1075 74.2141 57.1075 74.298 57.1075C74.3129 57.0354 74.3279 56.9634 74.3433 56.8891C74.4399 56.4356 74.5406 56.0017 74.6913 55.5625C74.8301 55.2498 74.8301 55.2498 74.6681 54.9957C74.6889 54.768 74.7198 54.5412 74.7554 54.3154C74.7768 54.1744 74.7982 54.0334 74.8203 53.8881C74.8439 53.7361 74.8675 53.5841 74.8918 53.4274C75.09 52.1043 75.2412 50.7874 75.3349 49.4527C75.3431 49.3371 75.3513 49.2215 75.3598 49.1025C75.3696 48.9512 75.3696 48.9512 75.3796 48.797C75.4085 48.5362 75.4085 48.5362 75.5318 48.1635C75.5242 47.9752 75.5242 47.9752 75.5164 47.7831C75.536 47.163 75.7059 46.6359 75.902 46.0517C75.8206 46.0517 75.7391 46.0517 75.6552 46.0517C75.6327 45.3952 75.6769 44.9357 75.902 44.3126C75.902 44.1486 75.902 43.9847 75.902 43.8157C75.7391 43.8157 75.5763 43.8157 75.4085 43.8157C75.3677 43.9387 75.327 44.0617 75.2851 44.1884C75.1629 44.1474 75.0408 44.1064 74.9149 44.0642C74.8273 43.3773 74.7542 42.7599 74.9149 42.0766C74.9963 42.0766 75.0778 42.0766 75.1617 42.0766C75.1617 41.9946 75.1617 41.9126 75.1617 41.8282C75.2431 41.8282 75.3246 41.8282 75.4085 41.8282C75.3652 41.7385 75.3219 41.6488 75.2774 41.5564C75.1488 41.1683 75.1751 40.9733 75.2851 40.586C75.2036 40.545 75.1222 40.504 75.0383 40.4617C74.8415 39.6098 74.9041 38.7223 74.9149 37.8531C74.9963 37.8531 75.0778 37.8531 75.1617 37.8531C75.121 37.7711 75.0802 37.6891 75.0383 37.6046C75.0294 37.2928 75.0268 36.9846 75.0306 36.673C75.0311 36.5873 75.0317 36.5016 75.0323 36.4134C75.0338 36.1893 75.036 35.9653 75.0383 35.7413C75.0383 35.6593 75.0383 35.5773 75.0383 35.4929C75.069 35.0531 75.1019 34.6135 75.1347 34.174C75.1543 33.8688 75.1617 33.5627 75.1617 33.2569C75.1832 33.0522 75.2064 32.8478 75.2311 32.6435C75.2785 32.1911 75.2719 31.8372 75.1617 31.3935C75.1617 31.1451 75.1617 30.8966 75.1617 30.6482C75.1388 30.5713 75.1159 30.4945 75.0923 30.4153C75.0338 30.1293 75.0589 29.9343 75.1 29.6466C75.1957 29.1705 75.1957 29.1705 75.0383 28.7849C75.1197 28.7849 75.2012 28.7849 75.2851 28.7849C75.2447 28.6973 75.2043 28.6097 75.1626 28.5194C75.0279 28.1341 75.0131 27.8482 75.0229 27.4417C75.0251 27.3205 75.0273 27.1993 75.0296 27.0744C75.0339 26.9372 75.0339 26.9372 75.0383 26.7973C74.9569 26.7563 74.8754 26.7153 74.7915 26.6731C74.8322 26.5911 74.873 26.5091 74.9149 26.4246ZM76.6423 48.9088C76.7657 49.1573 76.7657 49.1573 76.7657 49.1573L76.6423 48.9088ZM76.5189 50.7722C76.6423 51.0206 76.6423 51.0206 76.6423 51.0206L76.5189 50.7722ZM79.2334 134.746C79.2741 134.992 79.3149 135.238 79.3568 135.492C79.7115 135.332 79.9645 135.167 80.2205 134.871C80.2205 134.83 80.2205 134.789 80.2205 134.746C79.8948 134.746 79.569 134.746 79.2334 134.746ZM82.5649 135.367C82.396 135.929 82.5068 136.31 82.6882 136.858C82.8104 136.858 82.9325 136.858 83.0584 136.858C83.0824 136.656 83.1054 136.454 83.1278 136.253C83.1407 136.14 83.1536 136.028 83.1668 135.912C83.2061 135.614 83.2061 135.614 83.0584 135.367C82.8955 135.367 82.7327 135.367 82.5649 135.367Z" fill="black"/>
</svg>
